<?xml version="1.0" encoding="UTF-8"?>
<svg id="_레이어_2" data-name="레이어 2" xmlns="http://www.w3.org/2000/svg" viewBox="0 0 1000 200">
  <defs>
    <style>
      .cls-1 {
        fill: #0c1921;
      }
    </style>
  </defs>
  <g>
    <path class="cls-1" d="M130.52,108.7c1.51-21.42,4.54-41.96,8.7-63.01,1.13-5.54,1.89-10.96,1.76-16.51-.25-7.81-6.27-12.57-13.86-12.6-5.1-.02-11.56.12-19.78,1.64-5.34.99-10.84,2.9-15.37,5.54-5.42,3.15-6.68,8.82-4.54,14.62,4.91,10.71,10.14,21.76,8.7,33.77-.41,3.42-2.72,3.97-5.04,1.76-9.06-8.61-19.66-14.62-32.39-14.11-35.16-.88-49.02,30.37-49.15,63.01,0,26.97,11.72,54.06,40.2,57.09,10.46,1.13,21.17,0,29.87-6.3,9.45-6.8,13.57-16.76,16.71-16.53.09,0,.23.04.31.07.66.29.88,1.46.88,1.84-.03,2.74-.25,10.96-.25,10.96-.13,6.17,3.4,10.33,9.96,10.58,9.2.25,18.9-1.76,27.35-5.67,5.8-2.65,7.81-9.33,5.17-14.74-8.06-16.26-10.46-33.27-9.2-51.41ZM76.96,146.51c-7.06,2.52-14.62-1.64-17.14-8.32-7.69-20.41-3.02-49.4,14.24-48.77,4.91.13,9.95,3.53,11.97,8.82,6.3,16.26,4.28,43.6-9.07,48.26Z"/>
    <path class="cls-1" d="M204.02,60.19c-33.3,0-60.18,26.88-60.18,60.18s26.88,60.18,60.18,60.18,60.18-26.88,60.18-60.18-26.88-60.18-60.18-60.18ZM206.76,138.17l-.13.04c-6.9,1.9-12.49-2.74-15.22-8.68-6.3-14.15-3.93-36.04,7.73-41.99,5.83-2.97,12.49,0,15.82,5.59,8.68,14.75,7.39,40.87-8.2,45.04Z"/>
  </g>
  <g>
    <path class="cls-1" d="M333.21,177.38c8.13-2,13.76-10.25,10.88-19.01-4.88-14.63-7.13-29.39-4.5-44.89,1-6,2.88-11.75,7.88-15.63,4.13-3.13,10.88-3.75,14.51.5,3.38,4,4.75,10.25,4,15.51l-3.63,25.38v.38c-1.25,8.63-2.63,16.88-1.38,25.26,2.25,15.26,26.76,15.76,43.27,7.5,6.25-3.13,8.63-10.13,5.5-16.76-3.75-8.13-6.38-16.38-5.13-25.63l3.25-25.26c2.38-18.01-2.3-35.36-19.88-40.77-23.99-7.37-36.76,4.42-50.64,20.51-1,1.16-2.59,2.55-3.63,2.13-1.74-.72-2.29-2.63-2.25-3.75.11-3.19.87-12.75.87-12.75,1-14.01-23.38-10.88-37.14-.63-4.75,3.5-6,10.5-3.25,15.76,7.5,14.88,9.25,30.89,5.75,47.27-2.13,9.5-6.25,18.01-10.25,27.01-2.13,4.88-2.5,12.13,1.88,15.88,9,7.75,30.39,5.38,43.89,2Z"/>
    <path class="cls-1" d="M630.08,71.96h-13.01c-1,0-2.88-.63-3.63-1.25-.5-.5-1.13-2.63-.88-3.38l3.75-16.38c.75-3.5.5-6.88-1.63-9.25-1.75-2-4.88-3.63-7.88-3.5-5.5,0-9.63,3-12.5,7.25-7.63,11.88-18.38,20.63-31.51,25.88-8.5,3.38-12.76,13.63-8.75,21.88,2.13,4.38,10.38,1.38,13.26,4.5.88.88,1.37,3.85,1.13,5-1.38,6.59-7.38,25.89-7.38,25.89-2.63,9-4.75,17.88-4.88,27.39,0,11.38,7.25,21.01,18.51,23.38,8.38,1.75,17.13,1.5,25.39-.5,21.01-5,32.39-26.26,24.88-32.01-4.5-3.5-12.49,2.8-20.79-1.12-.19-.09-.75-.36-.75-.36-8.5-4-2.21-26.78.91-38.79.63-2.5,1.13-7.25,3.88-8.25,8-3.38,18.88.75,23.76-4,3.88-3.88,4.75-9.5,5-14.76.13-3.88-2.75-7.63-6.88-7.63Z"/>
    <path class="cls-1" d="M499.03,157.17c1.27,1.91-5.68,19.17,4,21.38,8.4,1.92,16.47-.31,23.05-2.67,4.73-1.7,9.58-3.71,12.34-8.08,5.38-8.5-9.25-22.01-5-40.39l-.13-.25,6.38-27.64c1.38-5.88,2.75-11.75,2.5-17.76-.25-5.63-4.63-10.13-10-10.63-10.63-1-21.26,0-31.01,3.38-8.63,3-12.13,11.63-8.75,19.88,8.13,19.51,5,48.02-10.5,52.02-6,1.5-12.74-1.79-14.49-7.66-1.25-4.13-1.26-8.72-.39-12.97l5-22.76c3-13.51,6.13-30.51-8.75-33.14-12.76-2.38-34.01-1.75-38.89,8.63-2.13,4.5-1,9.13,1.13,13.5,5,10,4.88,21.38,2.88,32.39l-4.75,25.76c-1.25,12.5,5.63,24.38,17.76,28.26,20.51,6.38,41.52-2,53.15-19.88.75-1.25,3.18-3.37,4.5-1.38Z"/>
  </g>
  <g>
    <path class="cls-1" d="M735.98,61.69c-7.75,1.25-15.38,6.25-19.26,13.51l-7.63,14.13c-.37.75-2.25,2.25-2.75,1.63-.38-.5-1.38-2.25-1.25-3l.5-12.5c.13-3.25-1.38-6.75-3.38-8.38-5.75-4.75-18.26.63-26.39,5.38-7.25,4.38-8.63,12.38-5.13,19.63,8.38,17.76,9.13,37.01,3.13,55.65l-4.63,14.51c-2.38,7.63,1.75,15.01,9.75,16.63l.25.13c15.63,3.13,41.02,2.5,45.52-10.63,1.75-5.13,0-10.63-2.75-15.26-8-13.13-11.38-28.01-7.88-43.14,1-4.25,4.25-8.63,8.13-10,9-3.25,12.26,14.13,23.26,9.25,12.88-5.63,16.01-27.51,9.75-39.02-3.63-6.75-11.5-9.75-19.26-8.5Z"/>
    <path class="cls-1" d="M868.66,99.34c2.88-14.88,4.5-35.39-10-36.39-9.13-.63-18.13,1-26.14,5.38-6,3.25-9,9.88-6.88,16.51l3.13,10c9.38,29.64-1.75,55.15-14.51,49.02-11.25-5.38-8.13-28.51-5.38-42.52,2.75-14.01,4.25-33.76-8-36.89-9.13-2.25-18.63-1.13-27.26,2.38-7.5,3-11.25,11.38-7.75,18.76,5.88,12.25,7.88,25.01,5.25,38.51-1.88,9.25-2.75,18.63-2.38,28.51l.13.25c.5,12.63,8.38,23.76,20.26,26.64,15.13,3.63,29.51-2.25,38.01-14.76,0,0,4.38-7.18,6.25-9.25.5-.55,1.83-1.32,2.88-.75.9.49.89,2,.88,2.63-.06,2.97-.49,8.92-.5,11.88,0,3.25,1.5,6.5,3.63,8.25,5.38,4.38,19.01-1.13,27.01-5.63,6-3.38,8.75-10.13,5.75-16.51-9.38-19.26-8.25-35.51-4.38-56.02Z"/>
    <path class="cls-1" d="M986.7,130.63l1.5-30.14c1-20.38-6.63-39.26-27.76-40.27-11-.5-21.16,3.06-27.26,12.38-2.07,3.16-5.89,9.63-8.47,12.52-.49.55-1.56,1.93-2.9,1.48-1.19-.4-1.25-2.15-1.25-2.77-.02-4.28,0-14.29-.25-17.11-.49-5.39-5-5.88-7.88-5.63-8.38.63-16.01,3.75-22.63,8.63-5.75,4.38-6.88,11.25-3.88,17.63,7.5,16.01,9.63,33.14,4.75,50.14,0,0-3.93,12.67-5.51,17.62-1.58,4.92-3.23,10.62-.86,15.51,5.34,11.03,24.38,11.13,36.76,8.63,10-1.88,15.01-10.88,12.13-20.76-4.5-15.26-7.13-30.64-4.63-46.52.75-5.25,2.38-11,6.5-14.26,3-2.38,7.5-2.75,10.75-.88,2.25,1.25,4.38,4.63,5,8,4.75,26.64-13.76,64.78,8.25,73.4v.13c10.25,4,22.38,2.38,31.39-4.5,5-3.88,5.5-11.38,2.63-16.76-4.38-8.38-6.75-16.88-6.38-26.51Z"/>
  </g>
</svg>