<svg version="1.0" xmlns="http://www.w3.org/2000/svg"
 width="1566" height="1667" viewBox="0 0 1566 1667"
 preserveAspectRatio="xMidYMid meet">
<g transform="translate(0.000000,1667.000000) scale(1.000000,-1.000000)"
fill="#f0ede8" stroke="none">
<path d="M856 1646 c-109 -6 -195 -24 -278 -57 -94 -38 -180 -98 -263 -185
-24 -25 -35 -38 -55 -63 -28 -34 -45 -59 -70 -96 -37 -60 -75 -135 -101 -203
-39 -105 -63 -219 -68 -329 -4 -84 3 -173 19 -247 25 -113 68 -195 138 -265
26 -26 50 -45 84 -66 23 -15 30 -19 51 -30 37 -18 63 -29 105 -43 47 -16 96
-27 155 -35 155 -20 325 6 467 72 75 36 141 82 201 141 53 54 88 99 131 173
26 46 56 106 82 167 15 33 19 42 27 64 29 73 49 146 58 205 8 53 9 117 3 176
-5 55 -23 137 -43 190 -23 65 -51 121 -85 172 -55 83 -120 142 -205 188 -39
22 -75 36 -120 47 -50 13 -81 18 -133 23 -24 1 -79 2 -100 1z m91 -63 c57 -6
90 -12 134 -25 72 -21 140 -55 194 -98 22 -17 43 -36 59 -54 34 -37 56 -69 78
-112 34 -69 53 -138 61 -230 2 -27 2 -93 0 -124 -7 -83 -21 -166 -45 -246 -15
-54 -25 -80 -44 -126 -26 -60 -64 -127 -101 -176 -12 -16 -38 -47 -39 -47 -1
2 -8 21 -10 30 -9 30 -9 49 -4 104 4 37 3 61 -4 85 -5 21 -10 30 -24 44 -14
14 -30 21 -54 22 -31 1 -54 -8 -76 -31 -8 -9 -12 -15 -20 -30 -8 -12 -11 -16
-15 -16 -2 0 -3 1 -4 4 -2 4 -2 5 -1 23 2 31 -1 43 -14 47 -12 3 -26 0 -46 -8
-18 -8 -26 -12 -33 -20 -9 -8 -12 -15 -13 -26 0 -9 0 -11 7 -28 18 -45 22 -79
16 -122 -4 -21 -11 -50 -18 -66 -7 -17 -8 -21 -9 -31 -1 -19 6 -31 23 -40 16
-8 47 -11 77 -7 29 3 42 13 48 34 3 10 3 17 -5 46 -8 33 -11 55 -11 85 0 25 1
38 6 52 7 20 18 30 33 30 11 0 19 -5 24 -17 5 -10 6 -17 7 -32 0 -22 -1 -36
-8 -90 -2 -13 -2 -22 -2 -37 0 -25 1 -32 7 -44 8 -17 20 -25 44 -28 9 -2 9 -2
-4 -12 -65 -54 -149 -99 -240 -129 -138 -46 -279 -62 -400 -44 -59 8 -109 23
-155 45 -77 38 -134 92 -181 171 -30 50 -67 141 -85 208 -14 51 -24 105 -27
153 -2 22 -1 80 1 104 10 142 60 291 140 418 56 88 118 159 198 225 40 33 93
67 142 91 81 41 167 66 257 74 23 3 24 3 75 2 33 0 50 0 61 -1z"/>
<path d="M761 1514 c-46 -4 -81 -16 -89 -32 -5 -9 -4 -19 4 -39 10 -24 15 -42
19 -64 2 -13 2 -30 0 -33 -3 -5 -7 -3 -20 9 -26 24 -55 35 -91 34 -25 0 -43
-4 -62 -14 -36 -20 -60 -55 -71 -106 -5 -22 -6 -34 -6 -60 0 -27 0 -37 6 -60
10 -47 34 -82 70 -99 22 -11 53 -16 78 -11 36 6 61 22 81 50 11 16 16 20 20
13 2 -3 2 -4 1 -23 0 -13 0 -21 1 -24 2 -6 7 -12 13 -15 6 -3 7 -4 18 -4 13 0
22 1 39 5 25 6 38 11 46 20 7 6 8 10 8 20 0 9 -1 13 -9 32 -10 21 -14 37 -18
66 -2 19 -2 66 1 97 4 45 10 90 18 130 9 49 11 61 9 74 -2 16 -10 27 -23 32
-4 2 -8 2 -19 3 -7 0 -18 -1 -24 -1z m-114 -215 c13 -7 24 -24 29 -48 2 -11 3
-38 1 -50 -4 -35 -17 -60 -35 -66 -7 -2 -20 -1 -26 1 -9 3 -14 7 -19 15 -12
17 -16 36 -16 66 0 33 8 60 22 74 5 5 12 9 18 10 7 2 20 0 26 -2z"/>
<path d="M997 1390 c-16 -2 -29 -5 -41 -9 -61 -20 -99 -65 -111 -129 -7 -41
-4 -85 10 -120 9 -22 21 -40 39 -57 20 -19 43 -32 73 -39 19 -5 35 -7 57 -7
61 0 111 20 142 57 27 32 40 69 42 119 1 35 -5 64 -19 94 -12 26 -30 46 -52
61 -24 16 -46 24 -76 30 -14 2 -50 2 -64 0z m43 -79 c8 -4 12 -7 18 -15 13
-18 19 -53 16 -81 -4 -31 -14 -49 -31 -57 -13 -6 -29 -5 -40 2 -17 12 -27 39
-27 73 0 44 14 73 38 80 7 2 19 1 26 -2z"/>
<path d="M1236 1087 c-9 -2 -15 -8 -24 -21 -14 -21 -28 -35 -48 -50 -8 -6 -15
-10 -32 -19 -14 -7 -24 -12 -27 -15 -8 -7 -13 -19 -14 -36 -2 -12 2 -22 10
-25 2 -1 9 -2 15 -2 6 -1 13 -2 15 -2 9 -4 8 -16 -9 -70 -18 -59 -22 -80 -21
-108 1 -20 7 -34 20 -47 10 -10 21 -16 39 -20 13 -2 41 -2 56 1 23 4 43 13 58
24 8 6 19 17 24 24 16 24 15 47 -3 52 -4 1 -10 1 -25 -3 -18 -4 -32 1 -38 13
-6 13 -6 29 1 64 6 33 13 57 17 62 5 5 9 6 25 6 16 0 36 2 41 3 8 3 15 12 19
27 2 6 2 10 2 19 0 11 0 12 -2 16 -2 3 -5 6 -7 7 -4 2 -6 2 -19 2 -32 -1 -38
0 -41 5 -2 4 -1 17 6 41 2 12 3 17 3 25 0 9 0 11 -2 15 -3 5 -8 10 -14 11 -6
2 -19 2 -25 1z"/>
<path d="M400 1007 c-7 -1 -27 -6 -34 -9 -4 -1 -12 -5 -18 -7 -8 -4 -12 -7
-17 -12 -9 -8 -11 -15 -11 -26 0 -9 1 -14 10 -34 4 -10 10 -28 12 -39 4 -18 4
-46 1 -68 -4 -27 -14 -58 -27 -83 -7 -14 -9 -21 -10 -32 0 -8 0 -11 2 -15 6
-20 31 -29 75 -28 27 1 55 6 70 13 8 4 17 12 21 21 3 7 3 8 3 18 0 11 0 13 -5
28 -10 32 -12 48 -12 78 0 24 1 39 6 55 5 15 14 28 25 34 5 2 6 2 16 2 8 0 10
0 15 -2 5 -3 10 -8 13 -15 5 -8 6 -14 5 -34 0 -21 -1 -31 -9 -73 -7 -35 -7
-41 -7 -59 1 -21 4 -29 13 -40 11 -11 22 -15 44 -16 42 -1 79 12 90 33 2 5 2
7 2 14 0 8 0 11 -7 27 -9 20 -11 33 -11 55 0 18 1 26 6 61 8 45 7 71 -4 96 -9
20 -25 36 -44 45 -34 14 -76 12 -107 -5 -16 -8 -31 -23 -43 -42 -5 -7 -10 -13
-10 -14 -3 -2 -8 -2 -11 0 -2 1 -2 2 -2 11 1 6 1 15 2 21 3 28 -6 41 -30 42
-5 0 -11 0 -12 -1z"/>
<path d="M779 993 c-24 -1 -36 -4 -47 -9 -11 -5 -19 -13 -22 -23 -3 -12 -1
-20 8 -42 15 -34 14 -60 -1 -122 -9 -36 -9 -64 0 -84 10 -22 28 -37 53 -44 9
-2 11 -2 30 -2 22 0 29 1 48 7 12 5 23 11 34 18 9 8 25 25 32 35 4 4 7 9 8 10
6 3 12 -1 12 -8 0 -2 -1 -11 -2 -18 -4 -28 0 -38 20 -41 13 -2 53 7 76 18 16
8 23 17 24 30 0 6 -1 10 -9 31 -3 6 -6 15 -8 22 -2 10 -2 12 -2 33 0 18 0 23
2 33 3 16 7 31 14 57 9 31 11 44 11 56 -1 20 -8 29 -24 35 -13 5 -48 4 -75 -2
-34 -7 -50 -19 -52 -40 0 -8 1 -15 7 -32 6 -20 9 -34 10 -52 0 -13 0 -18 -2
-27 -5 -32 -17 -54 -33 -62 -25 -12 -48 -1 -52 26 -1 9 -1 34 1 45 0 6 4 21 7
33 14 54 17 79 8 96 -5 11 -18 19 -33 21 -9 2 -35 3 -43 2z"/>
<path d="M819 618 c-13 -2 -33 -8 -41 -12 -9 -4 -19 -13 -23 -21 -2 -5 -2 -6
-2 -17 0 -12 0 -13 4 -26 13 -36 15 -48 15 -77 0 -20 0 -24 -2 -33 -7 -34 -19
-50 -38 -52 -13 -1 -22 5 -28 18 -5 12 -6 19 -6 47 -1 25 0 27 5 59 2 10 4 24
5 30 2 15 1 44 -1 53 -5 17 -15 27 -34 31 -7 1 -11 1 -23 1 -44 -2 -67 -13
-74 -37 -4 -12 -3 -18 7 -42 11 -26 14 -41 13 -70 -1 -11 -2 -24 -2 -29 -1 -6
-3 -18 -4 -27 -8 -46 -6 -70 5 -94 6 -12 12 -20 21 -27 17 -14 33 -19 59 -18
28 2 50 12 71 32 8 8 15 18 24 32 7 12 9 15 13 14 4 -2 4 -4 4 -26 -1 -24 0
-31 4 -38 8 -12 29 -13 57 -2 27 10 38 18 44 30 3 6 3 7 3 15 0 8 0 9 -4 20
-14 33 -19 57 -19 89 0 19 2 35 7 69 2 13 4 28 5 33 2 11 2 38 0 46 -2 11 -10
23 -17 27 -9 4 -32 5 -48 2z"/>
<path d="M491 618 c-9 -1 -21 -6 -29 -12 -20 -13 -35 -33 -48 -66 -3 -9 -6
-12 -11 -10 -4 2 -5 7 -4 20 2 23 1 35 -4 45 -8 16 -26 16 -63 -1 -27 -12 -38
-23 -40 -41 0 -8 2 -18 9 -35 11 -25 16 -42 18 -69 1 -15 0 -33 -3 -52 -3 -19
-7 -33 -14 -52 -11 -27 -12 -43 -6 -55 8 -17 32 -24 74 -23 38 2 64 9 77 22 5
5 6 6 8 13 5 15 2 30 -8 47 -12 21 -21 42 -23 60 -4 23 -3 51 2 67 3 10 5 14
9 20 6 7 12 9 20 9 9 1 13 -2 22 -12 8 -10 13 -14 21 -16 15 -4 31 4 42 20 6
8 9 14 12 26 4 16 4 25 3 36 -3 22 -8 35 -18 45 -6 6 -14 11 -22 13 -6 1 -17
2 -24 1z"/>
</g>
</svg>